<svg width="31" height="38" viewBox="0 0 31 38" fill="none" xmlns="http://www.w3.org/2000/svg">
<path d="M30 15.7778C30 27.0556 15.5 36.7223 15.5 36.7223C15.5 36.7223 1 27.0556 1 15.7778C1 11.9322 2.52767 8.24406 5.24695 5.52478C7.96623 2.80551 11.6544 1.27783 15.5 1.27783C19.3456 1.27783 23.0338 2.80551 25.753 5.52478C28.4723 8.24406 30 11.9322 30 15.7778Z" stroke="#C56C1A" stroke-width="2" stroke-linecap="round" stroke-linejoin="round"/>
<path d="M15.5 20.6112C18.1693 20.6112 20.3333 18.4473 20.3333 15.7779C20.3333 13.1085 18.1693 10.9446 15.5 10.9446C12.8306 10.9446 10.6666 13.1085 10.6666 15.7779C10.6666 18.4473 12.8306 20.6112 15.5 20.6112Z" stroke="#C56C1A" stroke-width="2" stroke-linecap="round" stroke-linejoin="round"/>
</svg>
