<svg width="40" height="41" viewBox="0 0 40 41" fill="none" xmlns="http://www.w3.org/2000/svg">
<path d="M24.5372 8.46119C26.3141 8.80787 27.9471 9.6769 29.2273 10.957C30.5074 12.2372 31.3765 13.8702 31.7231 15.6471M24.5372 1.18433C28.2289 1.59444 31.6715 3.24764 34.2996 5.87246C36.9277 8.49729 38.5852 11.9377 39 15.6289M37.1808 30.1462V35.6039C37.1828 36.1106 37.0791 36.6121 36.8761 37.0763C36.6731 37.5405 36.3754 37.9572 36.0021 38.2997C35.6287 38.6422 35.188 38.903 34.708 39.0653C34.2281 39.2276 33.7195 39.2879 33.2149 39.2423C27.6169 38.6341 22.2396 36.7212 17.5151 33.6573C13.1195 30.8642 9.39287 27.1376 6.59976 22.742C3.52524 17.9961 1.61191 12.5926 1.01477 6.96943C0.969305 6.46636 1.02909 5.95933 1.19032 5.48063C1.35155 5.00193 1.61069 4.56205 1.95124 4.18898C2.29179 3.81592 2.70628 3.51785 3.16834 3.31376C3.63039 3.10967 4.12988 3.00402 4.63501 3.00354H10.0927C10.9755 2.99485 11.8314 3.30749 12.5009 3.88319C13.1703 4.45889 13.6075 5.25836 13.7311 6.13259C13.9614 7.87916 14.3886 9.59407 15.0045 11.2446C15.2493 11.8957 15.3023 12.6034 15.1572 13.2837C15.0121 13.964 14.675 14.5885 14.1859 15.0831L11.8755 17.3935C14.4652 21.948 18.2363 25.7191 22.7908 28.3088L25.1012 25.9984C25.5958 25.5093 26.2203 25.1722 26.9006 25.0271C27.5809 24.8821 28.2886 24.935 28.9397 25.1798C30.5903 25.7957 32.3052 26.2229 34.0517 26.4532C34.9354 26.5779 35.7425 27.023 36.3194 27.7039C36.8964 28.3849 37.2029 29.2541 37.1808 30.1462Z" stroke="#C56C1A" stroke-width="2" stroke-linecap="round" stroke-linejoin="round"/>
</svg>
